<mxfile host="65bd71144e">
    <diagram id="9Eu-9f6B6GI42B0x7wP0" name="Page-1">
        <mxGraphModel dx="522" dy="474" grid="1" gridSize="10" guides="1" tooltips="1" connect="1" arrows="1" fold="1" page="1" pageScale="1" pageWidth="850" pageHeight="1100" math="0" shadow="0">
            <root>
                <mxCell id="0"/>
                <mxCell id="1" parent="0"/>
                <mxCell id="8" value="" style="ellipse;whiteSpace=wrap;html=1;aspect=fixed;" vertex="1" parent="1">
                    <mxGeometry x="220" y="50" width="410" height="410" as="geometry"/>
                </mxCell>
                <mxCell id="6" value="" style="ellipse;whiteSpace=wrap;html=1;aspect=fixed;" vertex="1" parent="1">
                    <mxGeometry x="273" y="103" width="304" height="304" as="geometry"/>
                </mxCell>
                <mxCell id="4" value="" style="ellipse;whiteSpace=wrap;html=1;aspect=fixed;" vertex="1" parent="1">
                    <mxGeometry x="317.5" y="147.5" width="215" height="215" as="geometry"/>
                </mxCell>
                <mxCell id="3" value="Feature 1" style="ellipse;whiteSpace=wrap;html=1;aspect=fixed;" vertex="1" parent="1">
                    <mxGeometry x="385" y="215" width="80" height="80" as="geometry"/>
                </mxCell>
                <mxCell id="5" value="Feature 1 + Feature 2" style="text;html=1;align=center;verticalAlign=middle;resizable=0;points=[];autosize=1;strokeColor=none;fillColor=none;" vertex="1" parent="1">
                    <mxGeometry x="355" y="305" width="140" height="30" as="geometry"/>
                </mxCell>
                <mxCell id="7" value="F1 + F2 + Feature 3" style="text;html=1;align=center;verticalAlign=middle;resizable=0;points=[];autosize=1;strokeColor=none;fillColor=none;" vertex="1" parent="1">
                    <mxGeometry x="366" y="365" width="130" height="30" as="geometry"/>
                </mxCell>
                <mxCell id="9" value="F1 + F2 + F3 + .... Fn" style="text;html=1;align=center;verticalAlign=middle;resizable=0;points=[];autosize=1;strokeColor=none;fillColor=none;" vertex="1" parent="1">
                    <mxGeometry x="360" y="415" width="140" height="30" as="geometry"/>
                </mxCell>
                <mxCell id="10" value="&lt;h1&gt;Use Case:&lt;/h1&gt;&lt;h3&gt;Pizza Shop&lt;br&gt;Coffee Machine&lt;br&gt;Car Accessories&lt;/h3&gt;" style="text;html=1;align=left;verticalAlign=middle;resizable=0;points=[];autosize=1;strokeColor=none;fillColor=none;" vertex="1" parent="1">
                    <mxGeometry x="150" y="475" width="140" height="140" as="geometry"/>
                </mxCell>
                <mxCell id="11" value="&lt;h1&gt;&lt;span style=&quot;background-color: initial;&quot;&gt;Why we use Decorator Pattern:&lt;/span&gt;&lt;/h1&gt;&lt;div&gt;&lt;span style=&quot;background-color: initial;&quot;&gt;To avoid class Explosion&lt;/span&gt;&lt;/div&gt;" style="text;html=1;align=left;verticalAlign=middle;resizable=0;points=[];autosize=1;strokeColor=none;fillColor=none;" vertex="1" parent="1">
                    <mxGeometry x="355" y="505" width="380" height="90" as="geometry"/>
                </mxCell>
            </root>
        </mxGraphModel>
    </diagram>
</mxfile>